<svg width="49" height="48" viewBox="0 0 49 48" fill="none" xmlns="http://www.w3.org/2000/svg">
<g clip-path="url(#clip0_1_21)">
<g clip-path="url(#clip1_1_21)">
<path d="M25.8406 22.8022C30.1448 22.8022 33.4925 19.3069 33.4925 15.0171C33.4925 10.7273 29.9854 7.39087 25.6812 7.39087C21.377 7.39087 18.0293 10.8862 18.0293 15.0171C18.0293 19.3069 21.5364 22.8022 25.8406 22.8022ZM25.6812 10.5685C25.8406 10.5685 25.8406 10.5685 25.6812 10.5685C28.2318 10.5685 30.3042 12.6339 30.3042 15.176C30.3042 17.7181 28.2318 19.6246 25.6812 19.6246C23.1306 19.6246 21.2176 17.5592 21.2176 15.176C21.2176 12.6339 23.29 10.5685 25.6812 10.5685Z" fill="#00A0C1"/>
<path d="M49.434 21.8487C46.4051 19.1477 42.4197 17.7178 38.2749 17.8767H36.9996C36.6808 19.1477 36.2025 20.2599 35.5649 21.2132C36.5214 21.0543 37.3184 21.0543 38.2749 21.0543C41.3038 20.8954 44.3327 21.8487 46.7239 23.5964V35.0357H49.9122V22.3253L49.434 21.8487Z" fill="#00A0C1"/>
<path d="M34.6084 7.70814C35.4055 5.80158 37.6373 4.8483 39.7097 5.6427C41.6226 6.4371 42.5791 8.66141 41.782 10.7269C41.1444 12.1568 39.7097 13.1101 38.2749 13.1101C37.9561 13.1101 37.4779 13.1101 37.159 12.9512C37.3184 13.7456 37.3184 14.54 37.3184 15.1755V16.1288C37.6373 16.1288 37.9561 16.2876 38.2749 16.2876C42.2603 16.2876 45.4486 13.1101 45.4486 9.29693C45.4486 5.32494 42.2603 2.14734 38.4343 2.14734C35.8837 2.14734 33.6519 3.41838 32.3766 5.6427C33.1737 6.11934 33.9707 6.75486 34.6084 7.70814Z" fill="#00A0C1"/>
<path d="M16.4351 21.3721C15.7975 20.4189 15.3192 19.3067 15.0004 18.0357H13.7251C9.58031 17.8768 5.59495 19.3067 2.56607 21.8488L2.08783 22.3254V35.0358H5.27612V23.5965C7.82675 21.8488 10.6962 20.8955 13.7251 21.0544C14.6816 21.0544 15.6381 21.2133 16.4351 21.3721Z" fill="#00A0C1"/>
<path d="M13.7251 16.1294C14.044 16.1294 14.3628 16.1294 14.6816 15.9705V15.0172C14.6816 14.2228 14.6816 13.4284 14.841 12.7929C14.5222 12.9518 14.044 12.9518 13.7251 12.9518C11.6527 12.9518 9.89917 11.2041 9.89917 9.13868C9.89917 7.07324 11.6527 5.32556 13.7251 5.32556C15.3193 5.32556 16.754 6.27884 17.3917 7.70876C18.0293 6.91436 18.9858 6.11996 19.7829 5.48444C17.7105 2.14796 13.4063 1.0358 10.0586 3.10124C6.71088 5.16668 5.59498 9.45644 7.66737 12.7929C8.94269 14.8584 11.1745 16.1294 13.7251 16.1294Z" fill="#00A0C1"/>
<path d="M38.9126 31.3816L38.5938 30.905C35.4055 27.4096 30.9419 25.3442 26.1595 25.5031C21.377 25.3442 16.754 27.4096 13.5657 30.905L13.2469 31.3816V43.4565C13.2469 44.8864 14.3628 46.1574 15.9569 46.1574H36.362C37.7967 46.1574 39.072 44.8864 39.072 43.4565V31.3816H38.9126ZM35.7243 42.9798H16.4352V32.4938C18.9858 29.9517 22.4929 28.6807 26.1595 28.6807C29.6666 28.5218 33.1737 29.9517 35.7243 32.4938V42.9798Z" fill="#00A0C1"/>
</g>
</g>
<defs>
<clipPath id="clip0_1_21">
<rect width="48" height="48" fill="white" transform="translate(0.5)"/>
</clipPath>
<clipPath id="clip1_1_21">
<rect width="48" height="44.2105" fill="white" transform="translate(2 2)"/>
</clipPath>
</defs>
</svg>
