<svg width="818" height="821" viewBox="0 0 818 821" fill="none" xmlns="http://www.w3.org/2000/svg">
<path opacity="0.32" fill-rule="evenodd" clip-rule="evenodd" d="M-15.0217 -241.826L0.181664 -250.252L106.268 -186.806L123.038 -176.689L130.409 -172.231L139.373 -166.798C148.657 -161.15 158.479 -155.066 168.054 -148.54C169.4 -147.623 170.742 -146.696 172.079 -145.759C177.551 -141.89 182.81 -137.8 187.819 -133.516C192.822 -129.237 197.581 -124.762 202.059 -120.12C210.945 -110.879 219.53 -100.336 228.303 -87.8899C233.683 -80.2577 239.026 -72.3117 244.249 -64.4727L248.143 -58.62C249.624 -56.392 251.104 -54.1631 252.588 -51.938L254.018 -49.8071C262.559 -37.1453 270.524 -26.6977 278.322 -17.9237C287.519 -7.5748 297.516 0.940872 308.053 7.40788L309.162 8.08028C320.109 14.6259 332.752 19.6292 346.741 22.9507C359.001 25.8631 372.464 27.9627 389.109 29.5574L403.646 30.9386C413.277 31.8606 423.063 32.8424 432.586 34.0234C447.806 35.9099 461.26 38.5574 473.715 42.1143C486.207 45.6983 498.689 50.6231 510.807 56.7474C521.43 62.1566 531.822 68.0737 541.596 73.7929L545.294 75.9627C555.527 81.9959 565.734 88.0474 575.926 94.0918L682.488 157.807L682.184 175.147L571.297 108.828C566.436 105.943 561.571 103.058 556.701 100.174L545.249 93.3992L537.51 88.8287L534.926 87.3125C523.408 80.5736 513.377 74.9576 502.803 69.8318C490.511 63.9111 477.651 59.3562 464.583 56.2932C451.955 53.3347 438.056 51.2515 422.088 49.9252C414.853 49.3236 407.472 48.8105 400.193 48.3278L386.395 47.4214L377.732 46.8371C375.689 46.6943 373.685 46.5388 371.716 46.3731C357.918 45.2075 345.914 43.4681 335.168 41.0831C321.637 38.0805 309.423 33.4258 298.849 27.2423L297.81 26.6263C287.121 20.2038 277.029 11.5314 267.812 0.848251C259.622 -8.64458 251.419 -19.9587 242.73 -33.7412C240.817 -36.7744 238.912 -39.8193 237.011 -42.8673L230.486 -53.3334C226.786 -59.2587 223.016 -65.2551 219.245 -71.0884C210.617 -84.4334 202.317 -95.6258 193.872 -105.306C185.112 -115.346 175.175 -124.49 164.338 -132.484C153.614 -140.337 142.302 -147.407 131.674 -153.878C123.561 -158.809 115.45 -163.709 107.353 -168.594L98.5119 -173.926L-15.0217 -241.826ZM17.4012 -259.805L115 -201.434C123.265 -196.454 131.547 -191.464 139.836 -186.45L148.127 -181.427C158.06 -175.396 169.734 -168.209 180.993 -160.631C192.156 -153.078 202.504 -144.864 211.751 -136.216C221.147 -127.397 230.407 -117.267 239.276 -106.107C246.681 -96.7905 253.975 -86.9229 261.077 -77.2179L264.759 -72.1798C274.484 -58.8678 282.923 -48.5007 291.317 -39.5536C300.68 -29.5729 310.738 -21.2589 321.237 -14.8209L322.442 -14.0909C333.383 -7.55331 345.913 -2.37762 359.683 1.29156C371.546 4.45172 384.738 6.99188 401.2 9.28787L407.181 10.1235C419.19 11.8085 431.457 13.5935 443.44 15.7859C457.572 18.373 470.982 21.8128 483.292 26.0093C495.546 30.2086 507.45 35.3977 519.681 41.8757C531.718 48.2713 543.281 54.9904 553.985 61.2975L563.01 66.6337C567.819 69.4778 572.626 72.3231 577.425 75.1704L586.631 80.6328L621.063 101.221L682.815 138.153L682.511 155.491L591.393 100.995L590.388 100.396C586.956 98.3429 583.531 96.2947 580.096 94.2385C572.598 89.7901 565.098 85.3398 557.586 80.8968L546.241 74.1998L542.596 72.0606C532.796 66.3273 522.376 60.3931 511.705 54.9591C499.476 48.7791 486.878 43.8099 474.258 40.1869C461.704 36.6016 448.151 33.9343 432.825 32.0347C422.09 30.7031 411.034 29.6257 400.242 28.6015L389.293 27.5635C372.743 25.9771 359.367 23.8923 347.196 21.0007C333.791 17.8127 321.647 13.0696 311.084 6.89319L309.994 6.24698C299.294 -0.18277 289.142 -8.76018 279.825 -19.2479C271.636 -28.4639 263.274 -39.5185 254.259 -53.0433L252.036 -56.3822L249.815 -59.7234C243.36 -69.4343 236.685 -79.4762 229.945 -89.0382C221.112 -101.565 212.464 -112.184 203.506 -121.504C199.232 -125.934 194.695 -130.208 189.94 -134.317C184.63 -138.907 179.05 -143.283 173.225 -147.399C171.865 -148.352 170.499 -149.296 169.128 -150.229C159.479 -156.805 149.673 -162.876 140.419 -168.503L139.084 -169.311C134.075 -172.352 129.065 -175.385 124.06 -178.408L107.248 -188.552L2.19731 -251.377L17.4012 -259.805ZM34.6332 -269.357L123.745 -216.064C132.014 -211.085 140.299 -206.097 148.592 -201.086L159.945 -194.212C168.611 -188.944 179.306 -182.362 189.905 -175.491C196.325 -171.301 202.328 -167.1 208.025 -162.822L210.296 -161.109L210.846 -160.68C214.466 -157.893 217.969 -155.07 221.367 -152.187C231.137 -143.888 240.848 -134.494 250.227 -124.266C252.416 -121.875 254.582 -119.462 256.752 -117.002L258.38 -115.147C263.272 -109.553 268.225 -103.684 273.578 -97.2395L277.967 -91.9392L278.719 -91.0341C288.491 -79.2781 296.843 -70.0503 304.878 -62.1223C306.442 -60.5782 308.024 -59.0855 309.616 -57.6249L310.812 -56.5351C311.364 -56.037 311.91 -55.5255 312.464 -55.0362L313.376 -54.2541C320.409 -48.1261 327.673 -42.7437 335.084 -38.202L336.406 -37.4012C347.328 -30.8741 359.699 -25.4614 373.179 -21.3118C375.3 -20.6579 377.476 -20.0177 379.718 -19.385L381.5 -18.8871C390.482 -16.4071 400.512 -14.0634 412.352 -11.6692L413.543 -11.4296C426.653 -8.80063 440.661 -5.88812 454.255 -2.41336C455.946 -1.97806 457.629 -1.53177 459.302 -1.0759C471.013 2.1214 482.261 5.84436 492.805 10.0147C504.528 14.6774 516.221 20.2376 528.551 27.0117C534.993 30.5738 541.455 34.2494 547.823 37.9024L556.681 42.996L562.811 46.5252L683.174 118.512L682.872 135.848L588.873 79.6284L578.448 73.452C573.646 70.6026 568.836 67.7557 564.022 64.9086C561.015 63.1296 558.02 61.3467 555.007 59.5699L551.401 57.4494C541.704 51.7592 531.358 45.8066 520.626 40.1032C508.301 33.5771 496.303 28.3453 483.945 24.1133C471.541 19.8835 458.037 16.4193 443.807 13.8143C430.787 11.4316 417.452 9.53232 404.473 7.71957L401.485 7.30261C385.102 5.01868 371.986 2.49158 360.205 -0.64743C346.615 -4.26675 334.257 -9.3703 323.477 -15.813L323.223 -15.9654C312.54 -22.3843 302.3 -30.7807 292.782 -40.926C284.853 -49.3791 276.875 -59.1176 267.789 -71.4468L266.313 -73.4584L262.762 -78.3168C255.628 -88.0675 248.299 -97.9824 240.849 -107.357C231.912 -118.6 222.584 -128.801 213.125 -137.68C203.8 -146.401 193.369 -154.682 182.121 -162.294C170.931 -169.828 159.672 -176.766 149.171 -183.142C141.071 -188.058 132.974 -192.945 124.89 -197.819L116.002 -203.176L19.4307 -260.93L34.6332 -269.357ZM36.6566 -270.478L51.8605 -278.905L165.698 -210.82L170.474 -207.867L181.087 -201.317C186.955 -197.692 192.911 -193.998 198.777 -190.304C210.794 -182.681 221.288 -175.375 230.859 -167.969C240.879 -160.214 251.001 -151.491 260.945 -142.045L262.625 -140.439C271.843 -131.592 280.631 -122.558 287.65 -115.232L292.054 -110.633C299.462 -102.93 308.745 -93.5309 318.498 -84.7637C320.396 -83.0564 322.312 -81.4114 324.237 -79.7953C332.345 -72.9718 340.642 -66.9416 348.998 -61.834L350.502 -60.9207C361.358 -54.4283 373.542 -48.7336 386.717 -43.9941C399.131 -39.5263 411.854 -35.7783 422.183 -32.8833L428.864 -31.0246C443.285 -27.0012 454.484 -23.6341 464.838 -20.2152C477.896 -15.894 490.47 -11.0391 502.209 -5.78574C513.337 -0.775726 524.849 5.10727 537.402 12.1996C543.32 15.5656 549.289 19.0095 555.158 22.4085L568.04 29.8729C569.213 30.5522 570.386 31.2306 571.558 31.9074L683.511 98.8642L683.209 116.199L563.83 44.7992L557.421 41.1143L551.305 37.5927C544.126 33.4653 536.81 29.2906 529.516 25.2604C517.09 18.4328 505.323 12.8381 493.542 8.15421C492.026 7.5549 490.495 6.96429 488.952 6.38434C478.142 2.31726 466.662 -1.28735 454.751 -4.35031C445.658 -6.6749 436.393 -8.74319 427.331 -10.6464C424.309 -11.2811 421.309 -11.8987 418.347 -12.5L412.697 -13.6411L410.289 -14.1334C398.774 -16.5094 389.013 -18.8391 380.274 -21.3056C378.045 -21.9347 375.881 -22.5735 373.768 -23.225C360.428 -27.3331 348.203 -32.6803 337.433 -39.1176L337.173 -39.2737C326.5 -45.687 316.108 -53.8516 306.283 -63.5452L305.111 -64.7096C297.278 -72.5368 289.077 -81.6682 279.474 -93.2549L276.857 -96.4185C267.788 -107.369 259.923 -116.641 251.701 -125.618C242.269 -135.904 232.499 -145.356 222.661 -153.711C220.981 -155.136 219.276 -156.545 217.545 -157.943L215.313 -159.734C213.65 -161.052 211.949 -162.359 210.232 -163.66C204.201 -168.228 197.835 -172.704 190.995 -177.168L189.106 -178.389C177.779 -185.689 166.558 -192.546 157.923 -197.778C146.86 -204.482 135.803 -211.138 124.745 -217.796L36.6566 -270.478ZM69.0876 -288.451L174.444 -225.439L181.376 -221.181L188.319 -216.927C194.752 -212.988 201.19 -209.044 207.618 -205.068L209.842 -203.681C221.577 -196.342 231.277 -189.906 240.213 -183.532C250.579 -176.132 261.054 -167.984 271.348 -159.314L273.099 -157.834C283.005 -149.434 292.524 -140.892 300.037 -134.075L303.921 -130.551C311.674 -123.534 321.403 -114.904 331.627 -106.595C341.961 -98.1995 352.042 -91.0321 362.389 -84.7302L363.907 -83.8132L364.13 -83.6794C375.086 -77.1281 386.74 -71.3027 399.756 -65.8699L401.883 -64.9877C413.586 -60.1663 425.36 -55.8565 434.876 -52.4664L441.705 -50.0368C451.487 -46.5416 463.392 -42.1922 475.12 -37.5193C487.735 -32.4895 499.967 -27.0499 511.47 -21.3501L513.336 -20.4192C523.321 -15.4116 533.829 -9.70422 546.215 -2.56512C550.607 -0.0232544 554.99 2.52869 559.369 5.08377L565.936 8.91788C570.726 11.7156 575.513 14.5127 580.294 17.291L683.859 79.2309L683.556 96.5603L572.576 30.1845L567.433 27.2086L553.404 19.0786C548.425 16.1988 543.392 13.3014 538.392 10.4566C525.785 3.33405 514.219 -2.57559 503.034 -7.61203C491.233 -12.8931 478.595 -17.773 465.471 -22.1156L463.298 -22.8283C450.98 -26.8385 438.707 -30.3606 428.822 -33.1159L422.624 -34.8413C412.319 -37.7329 399.665 -41.4648 387.399 -45.8767C374.8 -50.4099 363.117 -55.8235 352.65 -61.9769L351.168 -62.8576C340.554 -69.2348 330.016 -77.1043 319.841 -86.2515C310.089 -95.0242 300.853 -104.376 293.49 -112.033L287.888 -117.88C280.64 -125.428 271.677 -134.598 262.328 -143.496C252.331 -152.992 242.156 -161.759 232.09 -169.553C222.499 -176.976 211.955 -184.318 199.851 -191.997C193.004 -196.309 186.04 -200.617 179.236 -204.815L176.331 -206.607C173.137 -208.578 169.944 -210.548 166.744 -212.529L53.8885 -280.028L69.0876 -288.451ZM86.3109 -298L216.582 -220.09C219.269 -218.346 221.964 -216.612 224.662 -214.881L228.712 -212.285C235.521 -207.925 242.562 -203.415 249.416 -198.85C259.288 -192.274 269.369 -185.12 279.414 -177.561L281.422 -176.044C290.986 -168.792 300.418 -161.303 308.229 -155.026L316.069 -148.709C324.055 -142.289 333.871 -134.519 343.927 -127.045C355.136 -118.707 365.934 -111.446 376.858 -104.924C387.811 -98.3725 399.301 -92.2983 411.979 -86.3544L414.048 -85.3884C424.398 -80.5785 434.775 -76.0811 443.507 -72.3734L453.455 -68.1684C465.91 -62.8874 475.825 -58.5382 485.101 -54.2914C497.445 -48.6174 509.393 -42.6947 520.613 -36.6859C526.062 -33.766 531.536 -30.7395 536.914 -27.7432L548.726 -21.1536C550.881 -19.9549 553.033 -18.7618 555.182 -17.5794L684.191 59.5789L683.888 76.9092L581.32 15.5651L574.269 11.4584L567.22 7.34348C562.782 4.75174 558.343 2.15869 553.897 -0.42691L547.221 -4.29968L544.912 -5.62643C532.71 -12.6143 522.314 -18.2076 512.366 -23.143C500.857 -28.8482 488.577 -34.3099 475.866 -39.3786L473.763 -40.2126C462.548 -44.6379 451.432 -48.6925 442.246 -51.9724L432.917 -55.2941C423.34 -58.7294 411.842 -62.9932 400.532 -67.7161C388.318 -72.8141 376.861 -78.5007 366.457 -84.6289L364.72 -85.6621C354.429 -91.8455 344.418 -98.8758 334.175 -107.114L332.894 -108.15C324.814 -114.714 316.364 -122.01 305.835 -131.523L298.503 -138.167C290.968 -144.973 281.869 -153.073 272.642 -160.844C262.272 -169.575 251.755 -177.756 241.38 -185.162L239.691 -186.361C230.632 -192.762 220.719 -199.284 208.676 -206.769C204.388 -209.422 200.095 -212.06 195.804 -214.691L189.369 -218.634C184.74 -221.469 180.114 -224.302 175.487 -227.15L71.1121 -289.576L86.3109 -298ZM681.822 194.767L562.651 123.493L554.622 118.738C548.882 115.336 543.14 111.934 537.391 108.536L528.762 103.443L526.541 102.14C516.804 96.4371 505.632 90.0867 493.906 84.6618C481.662 79.0557 468.569 74.8788 454.992 72.2451C442.281 69.779 428.139 68.1097 411.756 67.1419C406.62 66.8384 401.404 66.5655 396.252 66.3053L383.549 65.6708C378.046 65.3928 372.474 65.099 366.994 64.7678C350.712 63.7853 336.743 61.9788 324.29 59.2479C310.364 56.1933 297.848 51.382 287.089 44.95L286.873 44.8202C276.196 38.4044 266.123 29.7228 256.938 19.0142C248.637 9.34058 240.481 -2.04662 232.001 -15.7964C228.416 -21.602 224.823 -27.5537 221.315 -33.3822L216.063 -42.1087C213.707 -46.0175 211.319 -49.9611 208.944 -53.8343C200.432 -67.7184 192.381 -79.3154 184.331 -89.2881C175.68 -100.007 165.969 -109.533 155.465 -117.606C144.841 -125.725 133.554 -132.816 122.939 -139.271C115.477 -143.802 108.016 -148.308 100.568 -152.802L89.7721 -159.311L-32.2443 -232.285L-17.0531 -240.705L97.4729 -172.213L98.2189 -171.763C109 -165.261 119.812 -158.742 130.625 -152.17L133.987 -150.117C143.568 -144.244 153.588 -137.876 163.144 -130.873C173.847 -122.979 183.675 -113.934 192.356 -103.991C200.729 -94.402 208.972 -83.2843 217.557 -70.0042C221.349 -64.1384 225.142 -58.1051 228.865 -52.1426L232.562 -46.2125C235.379 -41.6933 238.196 -37.1718 241.031 -32.6754L242.444 -30.4482C250.665 -17.5813 258.48 -6.89761 266.29 2.1548C275.388 12.7075 285.339 21.3297 295.882 27.8005L296.96 28.4533C307.913 34.9986 320.62 39.905 334.726 43.0355C345.56 45.4394 357.651 47.1914 371.539 48.3645C373.523 48.5322 375.543 48.688 377.602 48.832L386.288 49.4187L400.095 50.3263C407.351 50.8076 414.708 51.3189 421.914 51.9172C437.782 53.2358 451.587 55.3037 464.118 58.2398C477.062 61.277 489.782 65.7829 501.923 71.6327C512.79 76.8952 523.142 82.7211 535.19 89.79L540.082 92.6709L548.345 97.5534L557.284 102.848C561.719 105.477 566.089 108.072 570.338 110.598L682.124 177.455L681.822 194.767ZM681.697 203.731L672.316 208.931L553.905 138.113L549.197 135.318C542.729 131.479 536.256 127.637 529.774 123.8L520.042 118.05C509.77 111.996 497.746 105.069 485.046 99.4624C472.99 94.1772 459.72 90.2916 445.604 87.9126C432.929 85.7754 418.656 84.3328 401.969 83.5006C398.843 83.3458 395.713 83.1986 392.582 83.0539L380.248 82.4853C372.566 82.1247 364.779 81.7331 357.15 81.245C341.071 80.216 327.154 78.326 314.603 75.47C301.136 72.3995 288.952 67.7092 278.371 61.5235L277.27 60.8707C266.585 54.4507 256.482 45.825 247.236 35.232C238.81 25.5796 230.602 14.2781 222.142 0.682846C216.637 -8.16396 211.163 -17.3434 205.869 -26.2224C203.634 -29.9721 201.398 -33.7187 199.156 -37.4514C190.62 -51.6581 182.705 -63.4711 174.957 -73.5652C166.298 -84.8394 156.764 -94.6639 146.617 -102.77C136.207 -111.024 124.887 -118.168 114.204 -124.658C106.439 -129.369 98.6762 -134.055 90.9253 -138.727L81.0322 -144.688L-38.5584 -216.21L-38.3386 -228.905L-34.2776 -231.157L88.7295 -157.591L89.6285 -157.049C100.359 -150.578 111.119 -144.089 121.886 -137.556C132.482 -131.11 143.734 -124.039 154.234 -116.013C164.611 -108.038 174.21 -98.6208 182.761 -88.0243C190.751 -78.1248 198.755 -66.5983 207.227 -52.7837C209.596 -48.9188 211.979 -44.9825 214.331 -41.0805L221.343 -29.4315C224.293 -24.5384 227.291 -19.5896 230.285 -14.7398C238.841 -0.871674 247.058 10.5965 255.406 20.3232C264.495 30.9123 274.445 39.5562 284.999 46.0348L286.05 46.6717C297.004 53.2184 309.721 58.1085 323.848 61.2061C336.395 63.9596 350.466 65.7798 366.861 66.7715C373.433 67.1674 380.132 67.5103 386.687 67.8377L396.102 68.3071C401.261 68.5672 406.485 68.8408 411.626 69.144C427.925 70.1081 441.981 71.7666 454.599 74.2147C468.041 76.8236 480.982 80.9524 493.057 86.4857C504.405 91.7353 515.127 97.7531 527.735 105.173C539.018 111.822 550.269 118.499 561.5 125.163L681.815 197.12L681.697 203.731ZM655.064 218.476L545.136 152.733C533.874 146.036 522.595 139.333 511.283 132.653L508.769 131.172C498.657 125.234 487.851 119.149 476.199 114.193C464.24 109.144 450.864 105.433 436.445 103.166C423.748 101.169 409.856 99.8199 392.726 98.9183L378.059 98.1545C368.11 97.6299 357.998 97.0558 348.142 96.2885C332.316 95.0574 318.521 92.9679 305.967 89.9012C292.282 86.5598 279.856 81.5856 269.03 75.1179L268.793 74.9752C258.064 68.5285 247.897 60.0096 238.571 49.653C229.965 40.0934 221.639 28.9944 213.116 15.72C206.954 6.1196 200.87 -3.89067 194.957 -13.6753L189.915 -22.021L188.627 -24.1414C180.736 -37.0841 173.747 -47.5861 166.817 -56.9169L165.805 -58.2751C157.104 -69.8669 147.676 -79.8649 137.78 -87.9914C128.148 -95.8799 117.889 -102.515 105.45 -110.053C94.3736 -116.759 83.3083 -123.423 72.2681 -130.065L-38.9174 -196.562L-38.6151 -213.9L79.9871 -142.97L97.011 -132.705C102.387 -129.461 107.767 -126.209 113.15 -122.946L115.934 -121.248C125.724 -115.251 135.926 -108.683 145.356 -101.2C155.378 -93.1997 164.798 -83.4903 173.353 -72.3426L174.639 -70.654C181.937 -60.9938 189.406 -49.7703 197.426 -36.418C198.909 -33.9499 200.388 -31.4751 201.866 -28.9974L204.083 -25.2794C209.399 -16.3643 214.895 -7.14584 220.427 1.743C228.952 15.433 237.222 26.8186 245.711 36.55C254.831 47.006 264.796 55.5796 275.344 62.0536L276.451 62.7248C287.412 69.2756 300.092 74.2207 314.141 77.423C326.777 80.3031 340.798 82.2074 357.005 83.2451C364.636 83.7333 372.419 84.1251 380.096 84.4856L387.728 84.838C392.44 85.0551 397.151 85.2702 401.852 85.5038L404.596 85.6465C420.021 86.4873 433.346 87.878 445.255 89.8878C459.211 92.2397 472.323 96.0794 484.224 101.298C495.96 106.477 507.136 112.81 516.871 118.52L519.01 119.778C525.296 123.485 531.571 127.201 537.837 130.918L552.855 139.829L670.266 210.05L655.064 218.476ZM637.853 228.039L502.611 147.154L499.182 145.171C489.528 139.601 478.805 133.591 467.429 128.863C455.573 123.937 442.175 120.269 427.607 117.962L425.851 117.69C414.091 115.896 401.109 114.557 385.268 113.503L375.703 112.876C363.807 112.088 351.691 111.23 339.939 110.066C324.411 108.527 310.78 106.164 298.265 102.842C284.78 99.262 272.427 94.1499 261.551 87.6509L261.293 87.4959C250.522 81.0239 240.277 72.6397 230.837 62.5731C222.016 53.1641 213.524 42.3367 204.876 29.471C198.065 19.3343 191.47 8.87387 185.061 -1.40092L181.238 -7.53944C172.205 -22.0521 164.491 -33.4731 156.961 -43.4809C148.183 -55.1473 138.782 -65.1871 129.02 -73.3185C118.504 -82.0785 106.835 -89.3351 96.722 -95.4501C85.6454 -102.148 74.5788 -108.802 63.5303 -115.445L-39.2556 -176.917L-38.9534 -194.248L71.2451 -128.343C82.2804 -121.703 93.3449 -115.039 104.418 -108.335L106.785 -106.895C118.095 -99.9869 127.59 -93.748 136.516 -86.4388C146.299 -78.3977 155.616 -68.5164 164.211 -57.0665L164.75 -56.3436L165.291 -55.616C172.541 -45.8385 179.853 -34.7854 188.198 -20.9924L191.28 -15.8936C193.303 -12.5449 195.353 -9.15941 197.414 -5.76637C200.348 -0.936142 203.312 3.91211 206.31 8.70825C207.052 9.89481 207.8 11.0608 208.546 12.24L210.468 15.2863L211.437 16.8062C220.012 30.1687 228.404 41.3521 237.091 50.9987C246.281 61.205 256.282 69.6544 266.836 76.1313L268.01 76.8429C279.005 83.412 291.618 88.4622 305.496 91.8523C318.161 94.945 332.061 97.0508 347.993 98.2905C357.861 99.0583 367.976 99.6327 377.927 100.158L392.627 100.924C409.647 101.815 423.473 103.158 436.138 105.149C450.397 107.392 463.615 111.057 475.424 116.042C487.918 121.356 499.49 128.016 510.272 134.382C521.582 141.063 532.86 147.764 544.119 154.46L653.049 219.607L637.853 228.039ZM620.612 237.576L493.867 161.774L490.442 159.781C480.797 154.183 470.085 148.142 458.726 143.403C446.938 138.483 433.59 134.738 419.053 132.273L417.421 132C406.2 130.151 393.635 128.64 378.201 127.28L375.921 127.082C370.792 126.643 365.707 126.201 360.666 125.74L357.984 125.493C355.747 125.284 353.522 125.069 351.303 124.849C349.372 124.657 347.447 124.46 345.528 124.257C344.13 124.11 342.733 123.959 341.343 123.805C339.712 123.623 338.084 123.437 336.462 123.245L332.375 122.753C317.136 120.845 303.693 118.17 291.274 114.575C277.988 110.729 265.715 105.47 254.797 98.9472C243.878 92.4115 233.448 84.1215 223.809 74.2839C214.791 65.0807 206.113 54.5632 197.279 42.1308C196.07 40.4276 194.867 38.7119 193.669 36.9889C187.763 28.4927 181.954 19.7168 176.38 11.1893L171.716 4.04152C165.472 -5.49458 159.901 -13.6147 154.644 -20.8297L154.082 -21.5993C152.15 -24.2395 150.26 -26.7576 148.393 -29.1802C139.473 -40.7558 130.026 -50.7149 120.317 -58.7767C110.34 -67.0602 99.7983 -73.7118 88.0357 -80.9393L-39.5986 -157.272L-39.2948 -174.601L62.5124 -113.714C73.5464 -107.08 84.6108 -100.428 95.687 -93.7295L97.7871 -92.456C107.329 -86.6519 118.046 -79.847 127.739 -71.7735C137.374 -63.7474 146.668 -53.8209 155.363 -42.269L156.406 -40.875C163.547 -31.282 170.933 -20.2978 179.539 -6.47365L183.38 -0.307404C189.817 10.0124 196.433 20.5069 203.217 30.5952C211.927 43.5553 220.484 54.465 229.377 63.9486C238.653 73.8436 248.703 82.1347 259.268 88.6158L260.525 89.3767C271.558 95.9713 284.082 101.154 297.751 104.783C310.369 108.135 324.103 110.516 339.74 112.064C352.743 113.353 366.171 114.266 379.261 115.124L383.944 115.429L387.478 115.667C402.973 116.746 415.702 118.116 427.293 119.947C441.69 122.223 454.935 125.847 466.659 130.719C479.28 135.963 491.145 142.835 501.6 148.889L635.811 229.158L620.612 237.576ZM603.404 247.135L485.126 176.396L480.54 173.717C471.206 168.286 460.914 162.501 450.099 157.858C438.26 152.777 425.396 148.953 410.771 146.169L409.221 145.878C397.809 143.757 385.377 141.978 369.31 140.166L363.596 139.524C351.615 138.168 338.24 136.569 325.348 134.578C310.401 132.27 297.151 129.269 284.839 125.402C271.765 121.299 259.572 115.896 248.601 109.339L248.327 109.174L246.975 108.335C246.14 107.822 245.306 107.311 244.476 106.78C236.738 101.806 229.232 96.0289 222.088 89.5431C221.727 89.2155 221.362 88.8992 221.002 88.5676L220.758 88.3356C219.609 87.2709 218.467 86.1906 217.338 85.0884C208.125 76.1042 199.25 65.9114 190.205 53.9247L188.697 51.9179C181.425 42.1961 174.342 32.1154 166.161 20.2531L164.065 17.2162C154.809 3.83844 147.368 -6.25648 140.086 -15.3222C130.845 -26.8236 121.551 -36.3159 111.672 -44.3411C101.566 -52.5494 90.592 -59.4189 79.2924 -66.318L-39.9357 -137.623L-39.6327 -154.959L87.0036 -79.2215L90.8555 -76.8459C101.012 -70.5518 110.266 -64.5196 119.045 -57.23C128.641 -49.2599 137.984 -39.409 146.814 -27.9507C149.321 -24.697 151.87 -21.2711 154.506 -17.6103L155.388 -16.3813C160.12 -9.76125 165.144 -2.36536 170.712 6.1615L174.275 11.6279C180.108 20.5608 186.221 29.8076 192.51 38.8274C193.555 40.3273 194.603 41.8179 195.654 43.2962C204.545 55.8133 213.289 66.4091 222.385 75.6905C231.761 85.2584 241.872 93.3868 252.459 99.873L253.777 100.671C264.842 107.283 277.271 112.609 290.722 116.503C303.241 120.128 316.786 122.823 332.132 124.744L333.779 124.936C336.224 125.234 338.68 125.52 341.151 125.795C342.514 125.946 343.883 126.094 345.252 126.239C347.209 126.446 349.173 126.647 351.144 126.842L354.415 127.162L359.139 127.609L360.583 127.741C364.35 128.085 368.13 128.422 371.938 128.754L378.026 129.28C394.148 130.699 407.13 132.287 418.722 134.253C433.111 136.693 446.311 140.394 457.961 145.255C470.59 150.525 482.426 157.427 492.859 163.512L618.599 238.713L603.404 247.135ZM568.944 266.222L467.652 205.643L464.183 203.593C461.89 202.241 459.635 200.916 457.402 199.615L454.71 198.049L453.135 197.14L450.464 195.608C444.727 192.335 439.06 189.21 433.24 186.195L433.174 186.163C420.623 180.746 407.707 176.325 394.783 173.023L392.549 172.46C382.308 169.909 371.099 167.559 356.883 164.983L347.428 163.288C345.89 163.011 344.376 162.737 342.881 162.464L339.148 161.777L336.633 161.308L333.042 160.631L331.246 160.287L327.971 159.652L326.02 159.267L322.723 158.609L320.935 158.243L317.41 157.515C316.461 157.316 315.515 157.111 314.569 156.907C313.834 156.75 313.096 156.595 312.362 156.434C297.976 153.29 285.11 149.637 273.028 145.271C269.847 144.122 266.708 142.905 263.619 141.625C254.447 137.822 245.693 133.443 237.486 128.558L237.206 128.396C227.286 122.416 217.597 115.416 208.42 107.502L207.276 106.507C206.671 105.977 206.06 105.455 205.458 104.917C195.905 96.3656 186.64 86.8144 177.133 75.7145C168.661 65.8286 160.278 55.3765 152.412 45.4305L149.381 41.5972C139.55 29.1954 131.681 19.8377 124.027 11.437C115.116 1.66215 105.269 -7.58734 94.7054 -16.0976C84.8487 -22.9613 74.5718 -29.3353 65.3562 -34.9245L61.6233 -37.1817L-40.6251 -98.3305L-40.3228 -115.669L69.5186 -49.978L72.8752 -47.9369C82.4401 -42.1042 92.4389 -35.8395 102.082 -28.8929C112.278 -20.2224 121.824 -10.6758 130.462 -0.518524L131.941 1.23176C138.862 9.47056 146.091 18.743 155.003 30.8157L156.288 32.5597C164.369 43.5458 173.072 55.2405 181.969 66.3102C191.293 77.9127 200.427 87.8501 209.895 96.6912C219.794 105.938 230.392 113.977 241.398 120.59L241.758 120.805C252.888 127.455 265.134 133.059 278.159 137.46C290.449 141.614 303.595 144.966 318.349 147.707C331.073 150.069 343.877 152.024 359.032 154.195L360.555 154.413C377.663 156.858 390.53 159.097 402.276 161.67C415.416 164.549 428.436 168.562 440.98 173.599C452.552 179.378 463.85 185.954 475.362 192.742L584.139 257.8L568.944 266.222ZM549.682 276.906L534.486 285.328L450.16 234.896C439.873 228.74 429.763 222.723 419.486 216.919L416.01 214.969C404.249 209.149 391.893 203.828 379.244 199.138C367.541 195.384 355.188 191.821 341.536 188.26L333.276 186.119C322.314 183.272 311.119 180.32 300.074 177.146C286.163 173.147 273.664 168.869 261.862 164.07C249.923 159.212 238.482 153.577 227.828 147.307L225.95 146.19C215.061 139.648 204.389 132.073 194.224 123.671C184.413 115.565 174.77 106.627 164.742 96.3457L162.864 94.4149C155.061 86.3684 147.525 78.2709 138.842 68.8761L136.735 66.5958C126.743 55.7771 117.479 46.2396 108.382 37.4097C98.4117 28.54 88.0333 20.2087 77.4919 12.6184C67.1976 5.94834 56.5745 -0.484215 46.4713 -6.53653L-41.3185 -59.0396L-41.016 -76.369L54.5633 -19.2049C65.8526 -12.4304 75.484 -6.50082 84.9635 -0.161949C95.1977 7.60552 105.293 16.2661 114.935 25.5463L116.71 27.4468C124.428 35.7409 132.469 44.8084 141.2 55.0605L147.082 61.9701C155.016 71.2621 162.103 79.4044 169.43 87.4273C179.266 98.1925 188.777 107.494 198.509 115.861C203.607 120.245 208.854 124.388 214.21 128.268C215.088 128.903 215.972 129.521 216.857 130.144L218.161 131.066C219.095 131.714 220.035 132.343 220.975 132.973L222.254 133.838L223.184 134.441L224.115 135.041C224.925 135.565 225.733 136.091 226.547 136.603L226.983 136.871C228.097 137.569 229.212 138.262 230.333 138.936L230.787 139.207C241.959 145.877 254.043 151.725 266.701 156.588C278.737 161.215 291.497 165.202 305.705 168.776C318.498 171.996 331.741 174.916 343.455 177.444L346.35 178.067C361.204 181.261 374.386 184.421 386.599 187.711C399.51 191.934 412.013 196.847 423.76 202.314C434.847 208.303 445.654 214.686 455.84 220.78L549.682 276.906ZM515.232 295.992L500.033 304.418L422.578 258.098C414.362 253.192 406.566 248.558 398.722 243.955C387.144 237.582 375.21 231.579 363.22 226.1C351.428 221.189 339.162 216.444 325.708 211.59L312.689 207.048C304.36 204.136 295.911 201.161 287.612 198.147C274.041 193.214 261.906 188.313 250.514 183.164C238.306 177.645 226.513 171.498 215.462 164.896C204.379 158.253 193.42 150.829 182.812 142.721C172.878 135.133 162.858 126.805 152.176 117.262C144.126 110.071 136.035 102.666 128.151 95.4306L122.501 90.244C112.008 80.8071 102.126 72.304 92.2627 64.2262C81.9169 56.3182 71.1287 48.6845 60.1717 41.5257L57.1769 39.6935C46.6901 33.2908 36.1865 27.0095 26.8248 21.4142L-42 -19.7451L-41.6971 -37.0848L34.6049 8.54748C42.5158 13.2774 50.2923 17.9454 57.9716 22.6588L60.896 24.4633L63.8109 26.2735C65.1217 27.0879 66.4395 27.8984 67.7453 28.7192C78.3588 35.9854 88.9051 43.9171 99.0609 52.2674C108.636 60.7741 118.463 70.0198 128.265 79.7467L137.472 88.8837C143.946 95.3008 150.55 101.807 157.149 108.124L158.177 109.101L159.202 110.069C167.844 118.259 176.159 125.582 184.47 132.317L185.717 133.323C186.261 133.76 186.806 134.205 187.351 134.638C197.391 142.62 207.829 149.938 218.482 156.367L220.009 157.282C231.131 163.927 243.065 170.001 255.477 175.335C267.115 180.335 279.489 184.945 293.304 189.429C296.048 190.32 298.81 191.202 301.58 192.078C303.059 192.545 304.543 193.006 306.025 193.468C307.261 193.855 308.496 194.245 309.733 194.629C313.141 195.685 316.545 196.732 319.926 197.768L332.239 201.531C345.556 205.609 358.457 209.949 370.547 214.421C382.778 219.494 394.858 225.146 406.422 231.202C416.418 236.937 426.204 242.751 436.818 249.097L515.232 295.992ZM-41.6544 -39.3888L-41.3513 -56.7191L43.2799 -6.10553C53.9062 0.250244 65.2191 7.05938 76.3566 14.273C86.7966 21.7931 97.1228 30.0813 107.013 38.8789C116.047 47.6504 125.286 57.1614 135.26 67.9571L139.825 72.8968C147.2 80.8669 155.229 89.4757 163.304 97.7471C173.386 108.082 183.081 117.068 192.941 125.218C203.182 133.681 213.93 141.311 224.898 147.901L225.41 148.207C236.54 154.859 248.549 160.82 261.101 165.929C272.968 170.757 285.532 175.058 299.514 179.072C312.911 182.919 326.938 186.552 339.311 189.757L342.48 190.583C355.58 194.026 367.431 197.457 378.583 201.033C391.129 205.686 403.419 210.978 415.072 216.742C426.511 223.125 437.707 229.784 449.121 236.615L532.459 286.455L517.267 294.874L433.866 245.001C424.913 239.661 416.85 234.892 408.547 230.115L407.379 229.446C395.771 223.361 383.635 217.683 371.274 212.557C359.112 208.059 346.174 203.706 332.821 199.616L320.134 195.739C316.911 194.752 313.667 193.755 310.419 192.747C304.901 191.035 299.374 189.295 293.918 187.524C280.161 183.059 267.844 178.47 256.264 173.494C243.932 168.197 232.08 162.164 221.031 155.563C210.012 148.988 199.072 141.396 188.598 133.074L187.713 132.365L186.828 131.65C178.379 124.852 169.935 117.457 161.152 109.162L159.411 107.515C159.12 107.239 158.828 106.961 158.536 106.681C151.923 100.348 145.301 93.8247 138.808 87.3899L129.678 78.329C119.844 68.5723 109.991 59.3025 100.364 50.7496C90.1308 42.3354 79.5379 34.3688 68.8463 27.0498L67.4992 26.2124C58.1895 20.3832 48.7727 14.697 39.1756 8.95095L27.3407 1.87159L-41.6544 -39.3888ZM-40.6628 -96.0234L60.5906 -35.4688L64.3142 -33.2174C73.5027 -27.6446 83.7442 -21.2932 93.5027 -14.4998C103.929 -6.09802 113.7 3.08059 122.546 12.7822L123.56 13.8988C130.67 21.7592 138.071 30.5769 147.182 42.0461L152.537 48.8128C159.92 58.1241 167.723 67.8102 175.61 77.0147C185.181 88.1833 194.507 97.7979 204.12 106.405C204.642 106.873 205.174 107.326 205.7 107.788C206.447 108.443 207.189 109.104 207.942 109.748L208.229 109.987C216.653 117.161 225.481 123.586 234.558 129.133L235.999 130.005L236.463 130.277C244.74 135.207 253.582 139.63 262.852 143.472C265.972 144.766 269.14 145.994 272.351 147.154C284.489 151.546 297.438 155.22 311.938 158.39L313.038 158.627L316.997 159.471L318.702 159.824C319.911 160.075 321.122 160.325 322.34 160.572L325.589 161.221L328.266 161.747L331.446 162.362L334.697 162.979L337.695 163.542L342.674 164.459L347.743 165.378L356.527 166.953C371.742 169.709 383.492 172.204 394.291 174.963C407.072 178.227 419.876 182.608 432.351 187.988L434.255 188.988C435.049 189.406 435.845 189.819 436.636 190.241L437.742 190.84C438.811 191.413 439.879 191.987 440.942 192.569L442.031 193.173C443.088 193.755 444.144 194.337 445.197 194.927L446.807 195.837C447.684 196.33 448.56 196.823 449.435 197.323L452.478 199.071L454.558 200.273C458.57 202.602 462.583 204.971 466.618 207.364L566.916 267.348L551.722 275.771L458.913 220.267C448.047 213.763 436.453 206.883 424.639 200.506C412.792 194.994 400.206 190.047 387.181 185.786C374.884 182.474 361.669 179.306 346.781 176.104L341.856 175.042C330.283 172.537 318.169 169.844 306.203 166.83C292.095 163.278 279.411 159.316 267.428 154.712C254.855 149.883 242.874 144.086 231.821 137.481C220.811 130.926 210.016 123.102 199.821 114.336C190.126 106.001 180.672 96.7545 170.915 86.0712C162.599 76.9677 154.569 67.6546 146.972 58.7398L141.72 52.5709C132.67 41.9813 124.366 32.6663 116.366 24.1336C106.601 14.7383 96.4448 6.02511 86.1338 -1.799C75.8312 -8.68587 65.4526 -15.0363 53.0634 -22.4502L-40.9653 -78.6823L-40.6628 -96.0234ZM78.2628 -64.5987C89.5084 -57.732 100.43 -50.8981 110.416 -42.7802C120.189 -34.8359 129.387 -25.4421 138.532 -14.0616L139.499 -12.8525C146.439 -4.13983 153.602 5.6116 162.425 18.3615L167.032 25.0319C174.744 36.1718 181.551 45.7808 188.612 55.1378C197.72 67.2039 206.661 77.4713 215.945 86.5274C217.924 88.4599 219.942 90.3178 221.98 92.1346C222.472 92.5729 222.959 93.0242 223.455 93.456L224.379 94.24C230.485 99.4965 236.827 104.25 243.353 108.436C244.364 109.087 245.385 109.711 246.406 110.336L247.578 111.063C258.686 117.701 271.022 123.169 284.245 127.317C296.652 131.214 309.999 134.238 325.046 136.561C336.849 138.385 349.045 139.879 360.21 141.159L370.179 142.284C386.421 144.134 398.902 145.952 410.402 148.142C424.872 150.894 437.6 154.675 449.314 159.703C461.855 165.086 473.683 172.018 484.112 178.131L601.359 248.253L586.164 256.675L476.385 191.019L472.8 188.91C462.135 182.649 452.24 176.981 441.761 171.751C429.103 166.666 415.961 162.615 402.703 159.712L401.184 159.382C390.506 157.087 378.876 155.053 364.061 152.892L355.241 151.624C343.823 149.972 331.139 148.045 318.714 145.736C304.053 143.011 290.995 139.683 278.796 135.56C265.907 131.203 253.79 125.661 242.783 119.083L242.531 118.932C241.938 118.574 241.349 118.199 240.759 117.834L239.326 116.953C239.088 116.805 238.85 116.656 238.613 116.504C232.594 112.663 226.712 108.394 221.012 103.737L218.768 101.891C218.393 101.576 218.026 101.247 217.652 100.927C215.494 99.0789 213.356 97.1857 211.258 95.2247C201.881 86.471 192.81 76.6017 183.528 65.0522C175.279 54.7884 167.147 43.9207 159.524 33.577L157.898 31.3689C147.714 17.522 139.722 7.28691 131.984 -1.81924C123.293 -12.0476 113.668 -21.6701 103.314 -30.471C92.4132 -38.3273 81.1527 -45.2625 70.549 -51.6968L-40.2848 -117.981L-39.9806 -135.315L78.2628 -64.5987ZM90.6822 283.906L90.4627 296.619L90.4456 296.609L90.0623 318.56L90.0666 318.563L89.3825 357.85L89.3868 357.852L89.0842 375.193L89.08 375.191L88.6958 397.141L88.6975 397.142L88.3538 416.791L88.3572 416.793L88.0542 434.146L88.0456 434.141L87.6626 456.093L87.6703 456.098L87.3673 473.428L87.3639 473.426L86.9789 495.376L167.925 543.789C175.108 548.097 182.643 552.642 190.102 557.215C200.993 564.332 211.742 571.936 222.023 579.795C231.834 587.831 241.695 596.314 252.155 605.724L254.852 608.2C263.664 616.289 272.777 624.654 281.844 632.754C292.564 642.331 302.623 650.69 312.597 658.312C322.497 665.875 332.723 672.881 343.033 679.162L345.435 680.613C356.552 687.254 368.413 693.436 380.69 698.986C392.128 704.156 404.31 709.077 417.929 714.027C426.238 717.044 434.692 720.022 443.026 722.935L456.04 727.476C469.452 732.315 481.689 737.048 493.42 741.933C505.333 747.378 517.222 753.358 528.735 759.693L531.72 761.448C539.185 765.843 546.672 770.301 554.579 775.026L630.995 820.726L648.217 811.179L648.226 811.185L667.474 800.516L667.471 800.515L684.689 790.971L684.685 790.969L701.932 781.41L701.929 781.409L719.147 771.865L719.145 771.864L734.343 763.439L734.358 763.449L753.607 752.779L753.59 752.768L768.795 744.344L768.807 744.351L788.055 733.672L788.044 733.665L803.263 725.23L803.278 725.239L814.676 718.92L814.835 709.971L814.802 709.951L815.104 692.625L815.125 692.637L815.509 670.686L815.491 670.675L815.795 653.328L815.812 653.338L816.195 631.386L816.19 631.383L816.492 614.049L816.496 614.051L816.878 592.099L816.867 592.093L817.211 572.457L687.177 494.686C684.294 493.1 681.418 491.501 678.544 489.898L668.884 484.507C664.397 482.007 659.843 479.486 655.289 477.021L652.557 475.55C641.302 469.523 629.316 463.581 616.935 457.889L613.325 456.246C604.566 452.283 595.058 448.142 583.299 443.17L576.922 440.478C567.316 436.411 555.479 431.3 543.828 425.833C531.211 419.92 519.78 413.877 508.884 407.36C498.451 401.146 488.206 394.274 477.573 386.427L476.12 385.351C466.13 377.925 456.373 370.203 448.418 363.81L440.48 357.413C432.66 351.127 423.214 343.627 413.63 336.363C402.89 328.219 392.088 320.522 381.526 313.486C376.373 310.054 371.12 306.657 365.94 303.331L360.79 300.031C356.743 297.438 352.699 294.847 348.641 292.214L217.349 213.692L182.9 232.788L182.899 232.787L129.19 262.558L129.196 262.561L113.989 270.99L113.984 270.987L90.6822 283.906Z" fill="url(#paint0_linear_0_7)"/>
<defs>
<linearGradient id="paint0_linear_0_7" x1="-40.1603" y1="29.8299" x2="267.131" y2="378.723" gradientUnits="userSpaceOnUse">
<stop stop-color="#DEDEFF"/>
<stop offset="0.538482" stop-color="#DEDEFF" stop-opacity="0.32"/>
<stop offset="1" stop-color="#DEDEFF" stop-opacity="0.01"/>
</linearGradient>
</defs>
</svg>
